<mxfile host="app.diagrams.net" modified="2023-12-17T13:56:16.985Z" agent="Mozilla/5.0 (Windows NT 10.0; Win64; x64) AppleWebKit/537.36 (KHTML, like Gecko) Chrome/120.0.0.0 Safari/537.36" etag="t19NzsNe64YTm_RTKcur" version="22.1.11" type="github">
  <diagram name="Page-1" id="UQ_cWbBby8tbzshDhdmE">
    <mxGraphModel dx="1120" dy="1603" grid="1" gridSize="10" guides="1" tooltips="1" connect="1" arrows="1" fold="1" page="1" pageScale="1" pageWidth="827" pageHeight="1169" math="0" shadow="0">
      <root>
        <mxCell id="0" />
        <mxCell id="1" parent="0" />
        <mxCell id="chmQQ8K__h42pBDktZR2-55" value="&lt;p style=&quot;margin:0px;margin-top:4px;text-align:center;&quot;&gt;&amp;lt;&amp;lt;UseCaseModel&amp;gt;&amp;gt;&lt;/p&gt;&lt;p style=&quot;margin:0px;margin-top:4px;text-align:center;&quot;&gt;&lt;br&gt;&lt;b&gt;Système de gaspillage alimentaire&lt;/b&gt;&lt;/p&gt;" style="shape=rect;html=1;overflow=fill;html=1;whiteSpace=wrap;align=center;" vertex="1" parent="1">
          <mxGeometry x="240" y="-130" width="520" height="690" as="geometry" />
        </mxCell>
        <mxCell id="chmQQ8K__h42pBDktZR2-3" value="Utilisateur&lt;br&gt;(client)" style="shape=umlActor;html=1;verticalLabelPosition=bottom;verticalAlign=top;align=center;" vertex="1" parent="1">
          <mxGeometry x="90" y="81" width="30" height="59" as="geometry" />
        </mxCell>
        <mxCell id="chmQQ8K__h42pBDktZR2-4" value="Comerçcant" style="shape=umlActor;html=1;verticalLabelPosition=bottom;verticalAlign=top;align=center;" vertex="1" parent="1">
          <mxGeometry x="90" y="220" width="30" height="60" as="geometry" />
        </mxCell>
        <mxCell id="chmQQ8K__h42pBDktZR2-10" value="Rechercher des Offres" style="shape=ellipse;html=1;strokeWidth=3;fontStyle=1;whiteSpace=wrap;align=center;perimeter=ellipsePerimeter;" vertex="1" parent="1">
          <mxGeometry x="340" y="-40" width="250" height="40" as="geometry" />
        </mxCell>
        <mxCell id="chmQQ8K__h42pBDktZR2-16" value="&lt;p style=&quot;line-height: 40%; font-size: 15px;&quot;&gt;&lt;br&gt;Système&lt;br&gt;&lt;/p&gt;" style="shape=rect;html=1;verticalAlign=top;fontStyle=1;whiteSpace=wrap;align=center;" vertex="1" parent="1">
          <mxGeometry x="45" y="390" width="120" height="60" as="geometry" />
        </mxCell>
        <mxCell id="chmQQ8K__h42pBDktZR2-19" value="" style="edgeStyle=none;html=1;endArrow=none;verticalAlign=bottom;rounded=0;entryX=0.012;entryY=0.68;entryDx=0;entryDy=0;entryPerimeter=0;" edge="1" parent="1" target="chmQQ8K__h42pBDktZR2-10">
          <mxGeometry width="160" relative="1" as="geometry">
            <mxPoint x="120" y="140" as="sourcePoint" />
            <mxPoint x="340" y="30" as="targetPoint" />
          </mxGeometry>
        </mxCell>
        <mxCell id="chmQQ8K__h42pBDktZR2-20" value="&lt;div style=&quot;text-align: left;&quot;&gt;&lt;span style=&quot;background-color: initial;&quot;&gt;Consulter les Détails de l&#39;offre&lt;/span&gt;&lt;/div&gt;" style="shape=ellipse;html=1;strokeWidth=3;fontStyle=1;whiteSpace=wrap;align=center;perimeter=ellipsePerimeter;" vertex="1" parent="1">
          <mxGeometry x="330" width="270" height="40" as="geometry" />
        </mxCell>
        <mxCell id="chmQQ8K__h42pBDktZR2-23" value="" style="edgeStyle=none;html=1;endArrow=none;verticalAlign=bottom;rounded=0;exitX=1;exitY=1;exitDx=0;exitDy=0;exitPerimeter=0;entryX=0;entryY=0.5;entryDx=0;entryDy=0;" edge="1" parent="1" source="chmQQ8K__h42pBDktZR2-3" target="chmQQ8K__h42pBDktZR2-20">
          <mxGeometry width="160" relative="1" as="geometry">
            <mxPoint x="330" y="130" as="sourcePoint" />
            <mxPoint x="320" y="50" as="targetPoint" />
            <Array as="points" />
          </mxGeometry>
        </mxCell>
        <mxCell id="chmQQ8K__h42pBDktZR2-25" style="edgeStyle=orthogonalEdgeStyle;rounded=0;orthogonalLoop=1;jettySize=auto;html=1;exitX=0.5;exitY=1;exitDx=0;exitDy=0;" edge="1" parent="1" source="chmQQ8K__h42pBDktZR2-20" target="chmQQ8K__h42pBDktZR2-20">
          <mxGeometry relative="1" as="geometry" />
        </mxCell>
        <mxCell id="chmQQ8K__h42pBDktZR2-26" value="Effectuer un Achat" style="shape=ellipse;html=1;strokeWidth=3;fontStyle=1;whiteSpace=wrap;align=center;perimeter=ellipsePerimeter;" vertex="1" parent="1">
          <mxGeometry x="330" y="40" width="270" height="40" as="geometry" />
        </mxCell>
        <mxCell id="chmQQ8K__h42pBDktZR2-28" style="edgeStyle=orthogonalEdgeStyle;rounded=0;orthogonalLoop=1;jettySize=auto;html=1;exitX=0;exitY=0.5;exitDx=0;exitDy=0;" edge="1" parent="1" source="chmQQ8K__h42pBDktZR2-27">
          <mxGeometry relative="1" as="geometry">
            <mxPoint x="330" y="110" as="targetPoint" />
          </mxGeometry>
        </mxCell>
        <mxCell id="chmQQ8K__h42pBDktZR2-27" value="Gérer le Profil Utilisateur" style="shape=ellipse;html=1;strokeWidth=3;fontStyle=1;whiteSpace=wrap;align=center;perimeter=ellipsePerimeter;" vertex="1" parent="1">
          <mxGeometry x="330" y="90.5" width="270" height="40" as="geometry" />
        </mxCell>
        <mxCell id="chmQQ8K__h42pBDktZR2-29" value="" style="edgeStyle=none;html=1;endArrow=none;verticalAlign=bottom;rounded=0;exitX=1;exitY=1;exitDx=0;exitDy=0;exitPerimeter=0;entryX=0;entryY=0.5;entryDx=0;entryDy=0;" edge="1" parent="1" source="chmQQ8K__h42pBDktZR2-3" target="chmQQ8K__h42pBDktZR2-26">
          <mxGeometry width="160" relative="1" as="geometry">
            <mxPoint x="390" y="130" as="sourcePoint" />
            <mxPoint x="550" y="130" as="targetPoint" />
          </mxGeometry>
        </mxCell>
        <mxCell id="chmQQ8K__h42pBDktZR2-31" value="" style="edgeStyle=none;html=1;endArrow=none;verticalAlign=bottom;rounded=0;exitX=1;exitY=1;exitDx=0;exitDy=0;exitPerimeter=0;" edge="1" parent="1" source="chmQQ8K__h42pBDktZR2-3">
          <mxGeometry width="160" relative="1" as="geometry">
            <mxPoint x="390" y="130" as="sourcePoint" />
            <mxPoint x="330" y="100" as="targetPoint" />
          </mxGeometry>
        </mxCell>
        <mxCell id="chmQQ8K__h42pBDktZR2-34" value="Ajouter une Offre" style="shape=ellipse;html=1;strokeWidth=3;fontStyle=1;whiteSpace=wrap;align=center;perimeter=ellipsePerimeter;" vertex="1" parent="1">
          <mxGeometry x="340" y="160" width="320" height="40" as="geometry" />
        </mxCell>
        <mxCell id="chmQQ8K__h42pBDktZR2-35" value="Gérer les Commandes et Réservations" style="shape=ellipse;html=1;strokeWidth=3;fontStyle=1;whiteSpace=wrap;align=center;perimeter=ellipsePerimeter;" vertex="1" parent="1">
          <mxGeometry x="340" y="200" width="320" height="40" as="geometry" />
        </mxCell>
        <mxCell id="chmQQ8K__h42pBDktZR2-36" value="Publier des Actualités" style="shape=ellipse;html=1;strokeWidth=3;fontStyle=1;whiteSpace=wrap;align=center;perimeter=ellipsePerimeter;" vertex="1" parent="1">
          <mxGeometry x="340" y="240" width="320" height="40" as="geometry" />
        </mxCell>
        <mxCell id="chmQQ8K__h42pBDktZR2-37" value="Répondre aux Commentaires" style="shape=ellipse;html=1;strokeWidth=3;fontStyle=1;whiteSpace=wrap;align=center;perimeter=ellipsePerimeter;" vertex="1" parent="1">
          <mxGeometry x="330" y="280" width="320" height="40" as="geometry" />
        </mxCell>
        <mxCell id="chmQQ8K__h42pBDktZR2-40" value="" style="edgeStyle=none;html=1;endArrow=none;verticalAlign=bottom;rounded=0;exitX=1;exitY=1;exitDx=0;exitDy=0;exitPerimeter=0;entryX=0.009;entryY=0.7;entryDx=0;entryDy=0;entryPerimeter=0;" edge="1" parent="1" source="chmQQ8K__h42pBDktZR2-4" target="chmQQ8K__h42pBDktZR2-34">
          <mxGeometry width="160" relative="1" as="geometry">
            <mxPoint x="390" y="240" as="sourcePoint" />
            <mxPoint x="550" y="240" as="targetPoint" />
          </mxGeometry>
        </mxCell>
        <mxCell id="chmQQ8K__h42pBDktZR2-41" value="" style="edgeStyle=none;html=1;endArrow=none;verticalAlign=bottom;rounded=0;entryX=0;entryY=0.5;entryDx=0;entryDy=0;" edge="1" parent="1" target="chmQQ8K__h42pBDktZR2-35">
          <mxGeometry width="160" relative="1" as="geometry">
            <mxPoint x="120" y="280" as="sourcePoint" />
            <mxPoint x="330" y="220" as="targetPoint" />
          </mxGeometry>
        </mxCell>
        <mxCell id="chmQQ8K__h42pBDktZR2-42" value="" style="edgeStyle=none;html=1;endArrow=none;verticalAlign=bottom;rounded=0;exitX=1;exitY=1;exitDx=0;exitDy=0;exitPerimeter=0;entryX=0;entryY=0.5;entryDx=0;entryDy=0;" edge="1" parent="1" source="chmQQ8K__h42pBDktZR2-4" target="chmQQ8K__h42pBDktZR2-36">
          <mxGeometry width="160" relative="1" as="geometry">
            <mxPoint x="390" y="240" as="sourcePoint" />
            <mxPoint x="550" y="240" as="targetPoint" />
          </mxGeometry>
        </mxCell>
        <mxCell id="chmQQ8K__h42pBDktZR2-43" value="" style="edgeStyle=none;html=1;endArrow=none;verticalAlign=bottom;rounded=0;exitX=1;exitY=1;exitDx=0;exitDy=0;exitPerimeter=0;entryX=0;entryY=0.5;entryDx=0;entryDy=0;" edge="1" parent="1" source="chmQQ8K__h42pBDktZR2-4" target="chmQQ8K__h42pBDktZR2-37">
          <mxGeometry width="160" relative="1" as="geometry">
            <mxPoint x="390" y="240" as="sourcePoint" />
            <mxPoint x="550" y="240" as="targetPoint" />
          </mxGeometry>
        </mxCell>
        <mxCell id="chmQQ8K__h42pBDktZR2-47" value="Gestion des Paiements" style="shape=ellipse;html=1;strokeWidth=3;fontStyle=1;whiteSpace=wrap;align=center;perimeter=ellipsePerimeter;" vertex="1" parent="1">
          <mxGeometry x="520" y="420" width="200" height="60" as="geometry" />
        </mxCell>
        <mxCell id="chmQQ8K__h42pBDktZR2-48" value="Gestion des Notifications" style="shape=ellipse;html=1;strokeWidth=3;fontStyle=1;whiteSpace=wrap;align=center;perimeter=ellipsePerimeter;" vertex="1" parent="1">
          <mxGeometry x="300" y="350" width="180" height="60" as="geometry" />
        </mxCell>
        <mxCell id="chmQQ8K__h42pBDktZR2-49" style="edgeStyle=orthogonalEdgeStyle;rounded=0;orthogonalLoop=1;jettySize=auto;html=1;exitX=0.5;exitY=1;exitDx=0;exitDy=0;" edge="1" parent="1" source="chmQQ8K__h42pBDktZR2-47" target="chmQQ8K__h42pBDktZR2-47">
          <mxGeometry relative="1" as="geometry" />
        </mxCell>
        <mxCell id="chmQQ8K__h42pBDktZR2-51" value="Analyse des Données" style="shape=ellipse;html=1;strokeWidth=3;fontStyle=1;whiteSpace=wrap;align=center;perimeter=ellipsePerimeter;" vertex="1" parent="1">
          <mxGeometry x="310" y="470" width="190" height="60" as="geometry" />
        </mxCell>
        <mxCell id="chmQQ8K__h42pBDktZR2-52" value="" style="edgeStyle=none;html=1;endArrow=none;verticalAlign=bottom;rounded=0;exitX=1;exitY=0.25;exitDx=0;exitDy=0;" edge="1" parent="1" source="chmQQ8K__h42pBDktZR2-16" target="chmQQ8K__h42pBDktZR2-48">
          <mxGeometry width="160" relative="1" as="geometry">
            <mxPoint x="390" y="440" as="sourcePoint" />
            <mxPoint x="500" y="440" as="targetPoint" />
          </mxGeometry>
        </mxCell>
        <mxCell id="chmQQ8K__h42pBDktZR2-53" value="" style="edgeStyle=none;html=1;endArrow=none;verticalAlign=bottom;rounded=0;exitX=1;exitY=0.25;exitDx=0;exitDy=0;entryX=0;entryY=0.5;entryDx=0;entryDy=0;" edge="1" parent="1" source="chmQQ8K__h42pBDktZR2-16" target="chmQQ8K__h42pBDktZR2-47">
          <mxGeometry width="160" relative="1" as="geometry">
            <mxPoint x="390" y="440" as="sourcePoint" />
            <mxPoint x="520" y="440" as="targetPoint" />
          </mxGeometry>
        </mxCell>
        <mxCell id="chmQQ8K__h42pBDktZR2-54" value="" style="edgeStyle=none;html=1;endArrow=none;verticalAlign=bottom;rounded=0;exitX=1;exitY=0.25;exitDx=0;exitDy=0;entryX=0.084;entryY=0.2;entryDx=0;entryDy=0;entryPerimeter=0;" edge="1" parent="1" source="chmQQ8K__h42pBDktZR2-16" target="chmQQ8K__h42pBDktZR2-51">
          <mxGeometry width="160" relative="1" as="geometry">
            <mxPoint x="390" y="440" as="sourcePoint" />
            <mxPoint x="550" y="440" as="targetPoint" />
          </mxGeometry>
        </mxCell>
        <mxCell id="chmQQ8K__h42pBDktZR2-56" value="" style="edgeStyle=none;html=1;endArrow=none;verticalAlign=bottom;rounded=0;exitX=1;exitY=1;exitDx=0;exitDy=0;exitPerimeter=0;entryX=0;entryY=0.5;entryDx=0;entryDy=0;" edge="1" parent="1" source="chmQQ8K__h42pBDktZR2-4" target="chmQQ8K__h42pBDktZR2-27">
          <mxGeometry width="160" relative="1" as="geometry">
            <mxPoint x="490" y="170" as="sourcePoint" />
            <mxPoint x="650" y="170" as="targetPoint" />
          </mxGeometry>
        </mxCell>
      </root>
    </mxGraphModel>
  </diagram>
</mxfile>
